<svg viewBox="0 0 24 24" xmlns="http://www.w3.org/2000/svg">
    <path fill-rule="evenodd" clip-rule="evenodd"
          d="M11.087 3.17651H13.0477C17.9209 3.17651 21.8713 7.12696 21.8713 12C21.8713 16.8731 17.9209 20.8236 13.0477 20.8236H6.18499C4.01917 20.8236 2.26343 19.0678 2.26343 16.902V12C2.26343 7.12696 6.21384 3.17651 11.087 3.17651ZM8.68222 13.4579C8.40448 13.1617 7.93916 13.1467 7.64288 13.4244C7.34664 13.7022 7.33163 14.1675 7.60937 14.4637C8.93384 15.8765 10.4641 16.6569 12.0673 16.6569C13.6705 16.6569 15.2009 15.8765 16.5253 14.4637C16.8031 14.1675 16.7881 13.7022 16.4918 13.4244C16.1956 13.1467 15.7302 13.1617 15.4525 13.4579C14.326 14.6596 13.1602 15.1863 12.0673 15.1863C10.9745 15.1863 9.80871 14.6596 8.68222 13.4579Z"/>
</svg>
