<svg width="16" height="16" viewBox="0 0 16 16" fill="none" xmlns="http://www.w3.org/2000/svg">
<g clip-path="url(#clip0_130_729)">
<path d="M16 8.00011C16 3.58197 12.4182 0.000244183 8.00008 0.000244236C3.5821 0.000244289 4.2711e-08 3.58192 9.53962e-08 8C1.48081e-07 12.4181 3.5821 16.0001 8.00008 16.0001C12.4182 16.0001 16 12.4183 16 8.00011ZM5.87775 11.6099C5.58618 11.3182 5.58602 10.8453 5.87775 10.5534L8.45213 7.97958L5.86463 5.39176C5.57306 5.10019 5.5729 4.62708 5.86463 4.33524C6.01071 4.18959 6.20175 4.11668 6.3929 4.11668C6.58404 4.11668 6.77508 4.18959 6.92073 4.33551L9.92321 7.33772C9.9679 7.36646 10.0105 7.39942 10.0495 7.43841C10.1986 7.58753 10.2704 7.78379 10.2669 7.97952C10.2702 8.17483 10.1986 8.37141 10.0493 8.52037C10.0105 8.55952 9.96785 8.59232 9.92321 8.62096L6.93428 11.6099C6.64255 11.9015 6.16959 11.9017 5.87775 11.6099Z" fill="#3E92CC"/>
</g>
<defs>
<clipPath id="clip0_130_729">
<rect width="16" height="16" fill="white" transform="translate(16) rotate(90)"/>
</clipPath>
</defs>
</svg>
