<svg viewBox="0 0 24 24" xmlns="http://www.w3.org/2000/svg">
    <path fill-rule="evenodd" clip-rule="evenodd"
          d="M20.2379 10.5147V11.5014C20.2379 12.7277 19.2439 13.7218 18.0176 13.7218C16.7913 13.7218 15.7972 12.7277 15.7972 11.5014V10.5147L17.3413 11.2009C17.7718 11.3923 18.2633 11.3923 18.6939 11.2009L20.2379 10.5147ZM14.4095 9.89794V12.3341C14.4095 12.5641 14.2231 12.7505 13.9932 12.7505C13.7633 12.7505 13.5769 12.5641 13.5769 12.3341V9.52734C13.5819 9.52995 13.5871 9.53244 13.5924 9.5348L14.4095 9.89794Z"/>
    <path d="M22.4428 9.43735L18.694 7.77121C18.2635 7.57984 17.772 7.57984 17.3414 7.77121L13.5926 9.43735C13.3728 9.53502 13.3728 9.84692 13.5926 9.9446L17.3414 11.6107C17.772 11.8021 18.2635 11.8021 18.694 11.6107L22.4428 9.9446C22.6626 9.84692 22.6626 9.53502 22.4428 9.43735Z"/>
    <path fill-rule="evenodd" clip-rule="evenodd"
          d="M16.3169 18.5722H21.3482C21.9614 18.5722 22.4584 18.0752 22.4584 17.462C22.4584 16.2591 21.3722 15.2245 19.8151 14.7666C19.6292 14.712 19.4304 14.7707 19.2941 14.9084L18.4124 15.8C18.1951 16.0197 17.8403 16.0197 17.623 15.8L16.7412 14.9084C16.605 14.7707 16.4062 14.712 16.2203 14.7666C15.6748 14.927 15.1871 15.1582 14.7837 15.4426C15.7449 16.3222 16.313 17.4032 16.3169 18.5722Z"/>
    <path fill-rule="evenodd" clip-rule="evenodd"
          d="M11.782 8.20718V9.71261C11.782 11.5833 10.2655 13.0998 8.3948 13.0998C6.52409 13.0998 5.00758 11.5833 5.00758 9.71261V8.20718L7.36304 9.25406C8.0199 9.546 8.7697 9.546 9.42656 9.25406L11.782 8.20718ZM2.89057 7.26629V10.9828C2.89057 11.3336 2.60622 11.6179 2.25546 11.6179C1.90471 11.6179 1.62036 11.3336 1.62036 10.9828V6.70093C1.62808 6.70491 1.63599 6.7087 1.6441 6.71231L2.89057 7.26629Z"/>
    <path d="M15.1454 5.93844L9.42647 3.39669C8.76961 3.10475 8.01982 3.10475 7.36295 3.39669L1.64402 5.93844C1.30876 6.08744 1.30876 6.56326 1.64402 6.71226L7.36295 9.25401C8.01982 9.54595 8.76961 9.54595 9.42647 9.25401L15.1454 6.71226C15.4807 6.56326 15.4807 6.08744 15.1454 5.93844Z"/>
    <path d="M6.44752 14.2851L7.7927 15.6453C8.12414 15.9804 8.66546 15.9804 8.9969 15.6453L10.3421 14.2851C10.5499 14.075 10.8533 13.9854 11.1368 14.0688C13.5122 14.7673 15.1693 16.3456 15.1693 18.1807C15.1693 19.1161 14.411 19.8743 13.4757 19.8743H3.31397C2.37861 19.8743 1.62036 19.1161 1.62036 18.1807C1.62036 16.3456 3.27744 14.7673 5.65284 14.0688C5.93636 13.9854 6.23972 14.075 6.44752 14.2851Z"/>
</svg>
