<svg version="1.1" viewBox="0 0 700 700" xmlns="http://www.w3.org/2000/svg">
    <g>
        <path d="m437.5 192.5c0 48.324-39.176 87.5-87.5 87.5s-87.5-39.176-87.5-87.5 39.176-87.5 87.5-87.5 87.5 39.176 87.5 87.5"/>
        <path d="m412.82 297.5c-18.957 11.449-40.68 17.5-62.824 17.5s-43.867-6.0508-62.824-17.5c-23.906 15.023-43.555 35.926-57.066 60.715-13.512 24.789-20.438 52.629-20.109 80.859 0.23047 4.4258 2.1992 8.5781 5.4766 11.562 3.2773 2.9805 7.5977 4.5508 12.023 4.3633h245c4.4258 0.1875 8.7461-1.3828 12.023-4.3633 3.2773-2.9844 5.2461-7.1367 5.4766-11.562 0.32812-28.23-6.5977-56.07-20.109-80.859-13.512-24.789-33.16-45.691-57.066-60.715z"/>
        <path d="m259 274.4c-15.66-17.227-25.992-38.621-29.75-61.598-6.2383-1.9102-12.727-2.8516-19.25-2.8008-18.336 0.023438-35.93 7.2344-49 20.094-13.074 12.855-20.578 30.324-20.906 48.656s6.5508 36.062 19.156 49.375c9.832 10.469 22.676 17.625 36.75 20.477 5.7539-11.859 12.672-23.113 20.648-33.602 11.93-15.645 26.219-29.34 42.352-40.602z"/>
        <path d="m133.88 352.27c-14.176 18.266-23.504 39.816-27.125 62.652-1.5586 9.8945 1.25 19.984 7.6992 27.648 6.7539 7.8594 16.59 12.395 26.949 12.426h36.402c-1.9062-5.0898-2.8555-10.488-2.8008-15.926-0.054688-19.488 2.7148-38.879 8.2266-57.574-18.871-4.9141-35.973-15.043-49.352-29.227z"/>
        <path d="m560 280c0-18.566-7.375-36.371-20.504-49.496-13.125-13.129-30.93-20.504-49.496-20.504-6.5234-0.050781-13.012 0.89062-19.25 2.8008-3.7461 23.016-14.148 44.43-29.926 61.598 16.387 11.277 30.863 25.102 42.875 40.953 7.8672 10.371 14.668 21.512 20.301 33.25 13.875-2.9141 26.555-9.9258 36.398-20.125 12.551-13.023 19.574-30.395 19.602-48.477z"/>
        <path d="m593.25 414.93c-3.6992-22.82-13.156-44.324-27.477-62.477l-0.17578 0.17578h0.003906c-13.289 13.961-30.191 23.957-48.828 28.875 5.5117 18.695 8.2812 38.086 8.2266 57.574 0.054688 5.4375-0.89453 10.836-2.8008 15.926h36.227c10.418 0.007812 20.324-4.5312 27.125-12.426 6.4492-7.6641 9.2578-17.754 7.6992-27.648z"/>
    </g>
</svg>
