<svg viewBox="0 0 14 14" xmlns="http://www.w3.org/2000/svg">
    <g clip-path="url(#clip0_337_6457)">
        <path d="M7.00002 0.349609C3.14022 0.349609 1.88128e-05 3.17574 1.88128e-05 6.64961C1.88128e-05 7.86411 0.384319 9.04034 1.11255 10.0572C0.974652 11.5825 0.605052 12.7149 0.0683855 13.2513C-0.00254785 13.3222 -0.0202812 13.4307 0.0245188 13.5203C0.0644188 13.6004 0.145852 13.6496 0.233352 13.6496C0.244085 13.6496 0.255052 13.6489 0.266019 13.6473C0.360519 13.634 2.55572 13.3178 4.14332 12.4017C5.04515 12.7655 6.00555 12.9496 7.00002 12.9496C10.8598 12.9496 14 10.1235 14 6.64961C14 3.17574 10.8598 0.349609 7.00002 0.349609Z"/>
    </g>
    <defs>
        <clipPath id="clip0_337_6457">
            <rect width="14" height="14"/>
        </clipPath>
    </defs>
</svg>
