<svg viewBox="0 0 16 16" xmlns="http://www.w3.org/2000/svg">
    <path fill-rule="evenodd" clip-rule="evenodd"
          d="M8.50065 1.83301C8.50065 1.55687 8.27678 1.33301 8.00065 1.33301C7.72452 1.33301 7.50065 1.55687 7.50065 1.83301V3.16634C7.50065 3.44248 7.72452 3.66634 8.00065 3.66634C8.27678 3.66634 8.50065 3.44248 8.50065 3.16634V1.83301ZM2.3542 3.47945C2.15894 3.28419 1.84236 3.28419 1.6471 3.47945C1.45184 3.67471 1.45184 3.9913 1.6471 4.18656L2.6471 5.18656C2.84236 5.38182 3.15894 5.38182 3.3542 5.18656C3.54946 4.9913 3.54946 4.67471 3.3542 4.47945L2.3542 3.47945ZM14.3542 4.18656C14.5494 3.9913 14.5494 3.67471 14.3542 3.47945C14.1589 3.28419 13.8424 3.28419 13.6471 3.47945L12.6471 4.47945C12.4518 4.67471 12.4518 4.9913 12.6471 5.18656C12.8424 5.38182 13.1589 5.38182 13.3542 5.18656L14.3542 4.18656ZM13.9188 8.21381C14.9169 9.16921 14.9169 10.8303 13.9188 11.7857C12.5429 13.1027 10.4035 14.6664 8.00065 14.6664C5.59785 14.6664 3.45839 13.1027 2.08252 11.7857C1.08447 10.8303 1.08447 9.16921 2.08252 8.21381C3.45839 6.89674 5.59785 5.33309 8.00065 5.33309C10.4035 5.33309 12.5429 6.89674 13.9188 8.21381ZM10.0007 9.99974C10.0007 11.1043 9.10518 11.9997 8.00065 11.9997C6.89605 11.9997 6.00063 11.1043 6.00063 9.99974C6.00063 8.89521 6.89605 7.99974 8.00065 7.99974C9.10518 7.99974 10.0007 8.89521 10.0007 9.99974Z"/>
</svg>
