<svg viewBox="0 0 16 16" xmlns="http://www.w3.org/2000/svg">
    <path fill-rule="evenodd" clip-rule="evenodd"
          d="M7.9987 3.68281L8.5087 3.13486C9.91717 1.62171 12.2006 1.62171 13.609 3.13486C15.0175 4.648 15.0175 7.10127 13.609 8.61447L9.01877 13.5461C8.45537 14.1513 7.54197 14.1513 6.97863 13.5461L2.38835 8.61447C0.979926 7.10127 0.979926 4.648 2.38835 3.13486C3.79676 1.62171 6.08025 1.62171 7.4887 3.13486L7.9987 3.68281ZM11.332 3.5C11.0559 3.5 10.832 3.72386 10.832 4C10.832 4.27614 11.0559 4.5 11.332 4.5C11.7923 4.5 12.1654 4.87309 12.1654 5.33333C12.1654 5.60947 12.3892 5.83333 12.6654 5.83333C12.9415 5.83333 13.1654 5.60947 13.1654 5.33333C13.1654 4.32081 12.3446 3.5 11.332 3.5Z"/>
</svg>
