<svg width="25" height="25" viewBox="0 0 25 25" fill="none" xmlns="http://www.w3.org/2000/svg">
<path d="M20.1819 0.584015H4.96312C2.44159 0.584015 0.397491 2.62471 0.397491 5.14204V20.3355C0.397491 22.8528 2.44159 24.8935 4.96312 24.8935H20.1819C22.7034 24.8935 24.7475 22.8528 24.7475 20.3355V5.14204C24.7475 2.62471 22.7034 0.584015 20.1819 0.584015Z" fill="#2A628F"/>
<path d="M12.572 4.23044C12.3048 4.23047 12.0882 4.47641 12.0882 4.7798C12.0882 4.78445 12.0891 4.7889 12.0892 4.79353C12.0888 4.83475 12.0869 4.88441 12.0882 4.92031C12.0946 5.09529 12.1319 5.22921 12.1543 5.39043C12.195 5.73548 12.2291 6.02151 12.2081 6.28736C12.1876 6.38761 12.1154 6.4793 12.051 6.54302L12.0396 6.7522C11.7493 6.77679 11.457 6.8218 11.165 6.88954C9.90882 7.18103 8.82724 7.84232 8.00379 8.73517C7.95036 8.69792 7.85688 8.62939 7.82909 8.6084C7.74271 8.62032 7.65541 8.64756 7.5417 8.57987C7.32519 8.43093 7.128 8.22535 6.8894 7.97769C6.78007 7.85923 6.70089 7.74642 6.571 7.63223C6.5415 7.6063 6.49648 7.57123 6.46349 7.54455C6.36193 7.4618 6.24216 7.41865 6.12648 7.4146C5.97776 7.4094 5.83458 7.46882 5.74089 7.58892C5.57432 7.80242 5.62765 8.12874 5.85977 8.31787C5.86213 8.31979 5.86463 8.32128 5.86701 8.32315C5.8989 8.34958 5.93796 8.38344 5.96728 8.40556C6.10512 8.50957 6.23104 8.56281 6.36838 8.64537C6.65774 8.82799 6.89761 8.97941 7.08788 9.16198C7.16218 9.24292 7.17516 9.38554 7.18505 9.44723L7.34012 9.58879C6.51002 10.8655 6.12584 12.4424 6.35288 14.0492L6.15026 14.1094C6.09686 14.1798 6.0214 14.2907 5.94247 14.3238C5.69354 14.404 5.41338 14.4334 5.07515 14.4696C4.91635 14.4831 4.77934 14.4751 4.61099 14.5077C4.57393 14.5148 4.52231 14.5286 4.48177 14.5383C4.48036 14.5386 4.47904 14.539 4.47763 14.5393C4.47542 14.5399 4.47252 14.541 4.4704 14.5415C4.18524 14.6119 4.00205 14.8797 4.06103 15.1436C4.12001 15.4076 4.39855 15.5681 4.68542 15.505C4.68749 15.5045 4.6905 15.5044 4.69265 15.5039C4.69589 15.5031 4.69874 15.5015 4.70196 15.5007C4.74195 15.4918 4.79206 15.4818 4.82704 15.4722C4.99256 15.4269 5.11243 15.3604 5.26122 15.3021C5.58134 15.1848 5.84647 15.0868 6.10477 15.0486C6.21265 15.0399 6.32631 15.1166 6.38285 15.1489L6.59374 15.112C7.07904 16.6496 8.09606 17.8924 9.38386 18.6722L9.29599 18.8877C9.32766 18.9714 9.3626 19.0846 9.339 19.1673C9.2451 19.4161 9.08425 19.6788 8.9011 19.9717C8.81241 20.107 8.72165 20.2119 8.64162 20.3668C8.62247 20.4038 8.59808 20.4607 8.5796 20.4999C8.45525 20.7718 8.54646 21.0849 8.78531 21.2024C9.02567 21.3207 9.32401 21.196 9.45312 20.9235C9.45332 20.9231 9.45397 20.9229 9.45416 20.9225C9.45429 20.9222 9.45402 20.9217 9.45416 20.9214C9.47255 20.8828 9.4986 20.832 9.51411 20.7957C9.58266 20.6352 9.60547 20.4977 9.65367 20.3425C9.78168 20.0139 9.85201 19.6691 10.0282 19.4542C10.0765 19.3954 10.1551 19.3728 10.2367 19.3505L10.3463 19.1476C11.469 19.588 12.7257 19.7062 13.981 19.4149C14.2674 19.3485 14.5438 19.2625 14.8111 19.1592C14.8419 19.2151 14.8991 19.3224 14.9145 19.3494C14.9974 19.377 15.0878 19.3912 15.1616 19.5026C15.2934 19.7328 15.3835 20.0051 15.4934 20.334C15.5416 20.4892 15.5654 20.6268 15.634 20.7872C15.6496 20.8238 15.6755 20.8753 15.6939 20.914C15.8228 21.1873 16.1221 21.3125 16.3628 21.194C16.6016 21.0764 16.6929 20.7633 16.5685 20.4914C16.55 20.4523 16.5246 20.3954 16.5054 20.3583C16.4254 20.2035 16.3347 20.0996 16.246 19.9643C16.0628 19.6714 15.9109 19.4282 15.817 19.1793C15.7777 19.051 15.8236 18.9711 15.8542 18.8877C15.8359 18.8663 15.7966 18.7451 15.7735 18.6881C17.1119 17.8805 18.099 16.5913 18.5626 15.1024C18.6252 15.1125 18.734 15.1322 18.7694 15.1394C18.8421 15.0904 18.909 15.0264 19.0402 15.0369C19.2985 15.0751 19.5636 15.1732 19.8838 15.2905C20.0326 15.3487 20.1524 15.4164 20.318 15.4616C20.3529 15.4712 20.403 15.4801 20.443 15.4891C20.4463 15.4899 20.4491 15.4915 20.4523 15.4923C20.4545 15.4928 20.4575 15.4929 20.4596 15.4933C20.7465 15.5565 21.025 15.396 21.084 15.132C21.1429 14.8681 20.9598 14.6002 20.6746 14.5298C20.6331 14.5202 20.5743 14.5038 20.534 14.496C20.3657 14.4635 20.2286 14.4715 20.0698 14.458C19.7316 14.4218 19.4515 14.3923 19.2025 14.3122C19.101 14.272 19.0288 14.1485 18.9937 14.0978L18.7983 14.0396C18.8996 13.2907 18.8723 12.5112 18.697 11.7313C18.5201 10.9441 18.2074 10.2242 17.7904 9.58985C17.8405 9.54329 17.9352 9.45763 17.962 9.43244C17.9699 9.34372 17.9631 9.25071 18.053 9.15248C18.2432 8.9699 18.4831 8.8185 18.7725 8.63587C18.9098 8.55329 19.0368 8.50007 19.1746 8.39605C19.2058 8.37253 19.2483 8.33528 19.2811 8.30837C19.5132 8.11917 19.5666 7.79287 19.4 7.57941C19.2333 7.36595 18.9105 7.34585 18.6784 7.53504C18.6454 7.56177 18.6005 7.59665 18.5709 7.62272C18.441 7.73692 18.3608 7.84972 18.2515 7.96819C18.0129 8.21585 17.8157 8.42247 17.5992 8.57142C17.5053 8.62724 17.3679 8.60793 17.3056 8.60417L17.1216 8.73834C16.0723 7.61392 14.6437 6.89502 13.1054 6.75537C13.1011 6.68949 13.0955 6.57041 13.094 6.53457C13.0311 6.47299 12.955 6.42041 12.9359 6.28736C12.9148 6.02151 12.95 5.73548 12.9907 5.39043C13.0131 5.22921 13.0504 5.09529 13.0568 4.92031C13.0583 4.88053 13.0559 4.82281 13.0558 4.7798C13.0558 4.47641 12.8392 4.23041 12.572 4.23044H12.572ZM11.9662 8.06538L11.8225 10.659L11.8122 10.6643C11.8025 10.8963 11.6157 11.0816 11.3863 11.0816C11.2923 11.0816 11.2055 11.0507 11.1351 10.9981L11.1309 11.0002L9.04996 9.49265C9.68952 8.84995 10.5076 8.37499 11.4504 8.15623C11.6226 8.11627 11.7947 8.08662 11.9662 8.06538ZM13.1788 8.06538C14.2795 8.20373 15.2974 8.71307 16.0775 9.49371L14.0099 10.9918L14.0027 10.9886C13.8192 11.1256 13.5606 11.0916 13.4176 10.9083C13.359 10.8332 13.3283 10.7449 13.3246 10.6558L13.3225 10.6548L13.1788 8.06538ZM8.29531 10.4614L10.1954 12.1982L10.1933 12.2088C10.3648 12.3612 10.3901 12.6256 10.2471 12.8089C10.1885 12.884 10.11 12.9343 10.0258 12.9578L10.0238 12.9663L7.58822 13.6847C7.46426 12.5263 7.73141 11.4002 8.29531 10.4614ZM16.8352 10.4625C17.1175 10.9301 17.3313 11.4524 17.4586 12.0186C17.5843 12.5781 17.6159 13.1365 17.564 13.6762L15.1161 12.9557L15.114 12.9452C14.8948 12.8839 14.7601 12.6561 14.8111 12.4275C14.832 12.3339 14.8807 12.2547 14.9465 12.1961L14.9455 12.1908L16.8352 10.4625H16.8352ZM12.1823 12.3324H12.9607L13.4445 12.9504L13.2708 13.7217L12.572 14.065L11.8711 13.7206L11.6974 12.9494L12.1823 12.3324ZM14.6778 14.4474C14.7108 14.4457 14.7438 14.4488 14.776 14.4548L14.7801 14.4496L17.2994 14.8848C16.9307 15.9434 16.2252 16.8605 15.2825 17.4742L14.3046 15.0602L14.3077 15.056C14.2178 14.8426 14.3077 14.5925 14.5144 14.4908C14.5673 14.4647 14.6226 14.4503 14.6778 14.4474H14.6778ZM10.4466 14.458C10.6388 14.4608 10.8113 14.5971 10.8559 14.7971C10.8769 14.8908 10.8667 14.9835 10.8322 15.0655L10.8394 15.075L9.8718 17.4647C8.96715 16.8714 8.24659 15.9831 7.86113 14.8933L10.3587 14.4601L10.3628 14.4654C10.3908 14.4601 10.4191 14.4576 10.4466 14.458V14.458ZM12.5565 15.505C12.6234 15.5024 12.6914 15.5165 12.756 15.5483C12.8407 15.5899 12.9061 15.6555 12.9472 15.7342H12.9565L14.1878 18.0077C14.028 18.0624 13.8637 18.1092 13.6957 18.1482C12.7541 18.3667 11.8154 18.3005 10.9655 18.0045L12.1936 15.7353H12.1957C12.2694 15.5945 12.4091 15.5105 12.5565 15.505Z" fill="white" stroke="white" stroke-width="0.25"/>
</svg>
