<svg width="25" height="26" viewBox="0 0 25 26" fill="none" xmlns="http://www.w3.org/2000/svg">
<path d="M20.2369 0.787842H5.01814C2.49661 0.787842 0.452515 2.82854 0.452515 5.34587V20.5393C0.452515 23.0566 2.49661 25.0973 5.01814 25.0973H20.2369C22.7584 25.0973 24.8025 23.0566 24.8025 20.5393V5.34587C24.8025 2.82854 22.7584 0.787842 20.2369 0.787842Z" fill="#2A628F"/>
<path fill-rule="evenodd" clip-rule="evenodd" d="M11.754 5.33424C12.3039 5.05932 12.9511 5.05932 13.5009 5.33424L18.6973 7.93244C19.6134 8.39046 19.6134 9.69772 18.6973 10.1557L13.5009 12.7539C12.9511 13.0289 12.3039 13.0289 11.754 12.7539L6.55764 10.1557C5.64159 9.69772 5.6416 8.39046 6.55764 7.93244L11.754 5.33424ZM5.7488 15.9297C5.86828 15.661 6.18306 15.5399 6.45188 15.6594L12.2669 18.2438C12.4964 18.3459 12.7584 18.3459 12.988 18.2438L18.803 15.6594C19.0718 15.5399 19.3866 15.661 19.506 15.9297C19.6255 16.1986 19.5044 16.5134 19.2356 16.6329L13.4206 19.2174C12.9156 19.4417 12.3392 19.4417 11.8342 19.2174L6.01922 16.6329C5.75039 16.5134 5.62933 16.1986 5.7488 15.9297ZM6.45188 12.4634C6.18306 12.344 5.86828 12.465 5.7488 12.7338C5.62933 13.0027 5.75039 13.3175 6.01922 13.4369L11.8342 16.0214C12.3392 16.2458 12.9156 16.2458 13.4206 16.0214L19.2356 13.4369C19.5044 13.3175 19.6255 13.0027 19.506 12.7338C19.3866 12.465 19.0718 12.344 18.803 12.4634L12.988 15.0479C12.7584 15.1499 12.4964 15.1499 12.2669 15.0479L6.45188 12.4634Z" fill="white"/>
</svg>
