<svg width="25" height="25" viewBox="0 0 25 25" fill="none" xmlns="http://www.w3.org/2000/svg">
<path d="M20.2369 0.584015H5.01814C2.49661 0.584015 0.452515 2.62471 0.452515 5.14204V20.3355C0.452515 22.8528 2.49661 24.8935 5.01814 24.8935H20.2369C22.7584 24.8935 24.8025 22.8528 24.8025 20.3355V5.14204C24.8025 2.62471 22.7584 0.584015 20.2369 0.584015Z" fill="#2A628F"/>
<path fill-rule="evenodd" clip-rule="evenodd" d="M11.8709 7.1124H13.2109C13.951 7.1124 14.5509 7.67805 14.5509 8.37582C14.5509 9.17431 15.4053 9.68198 16.1066 9.30021L16.1778 9.26144C16.8187 8.91255 17.6383 9.11959 18.0083 9.72388L18.6783 10.8181C19.0483 11.4223 18.8288 12.195 18.1878 12.5439C17.4862 12.9258 17.4862 13.9332 18.1878 14.3151C18.8288 14.664 19.0483 15.4367 18.6783 16.041L18.0083 17.1351C17.6383 17.7394 16.8187 17.9465 16.1778 17.5976L16.1066 17.5588C15.4053 17.1771 14.5509 17.6847 14.5509 18.4832C14.5509 19.181 13.951 19.7467 13.2109 19.7467H11.8709C11.1309 19.7467 10.5309 19.181 10.5309 18.4832C10.5309 17.6847 9.6766 17.1771 8.97527 17.5588L8.90404 17.5976C8.26313 17.9465 7.4436 17.7394 7.07357 17.1351L6.40357 16.041C6.03353 15.4367 6.25313 14.664 6.89404 14.3151C7.59569 13.9332 7.59569 12.9258 6.89404 12.5439C6.25313 12.195 6.03354 11.4223 6.40357 10.818L7.07357 9.72387C7.4436 9.11958 8.26313 8.91254 8.90404 9.26142L8.97527 9.3002C9.6766 9.68197 10.5309 9.17431 10.5309 8.37582C10.5309 7.67805 11.1309 7.1124 11.8709 7.1124ZM12.541 15.5352C13.7039 15.5352 14.6467 14.5925 14.6467 13.4295C14.6467 12.2666 13.7039 11.3238 12.541 11.3238C11.378 11.3238 10.4352 12.2666 10.4352 13.4295C10.4352 14.5925 11.378 15.5352 12.541 15.5352Z" fill="white"/>
</svg>
