<svg viewBox="0 0 30 31" xmlns="http://www.w3.org/2000/svg">
    <path fill-rule="evenodd" clip-rule="evenodd"
          d="M14.9077 28.0539C21.7687 28.0539 27.3308 22.4919 27.3308 15.6308C27.3308 8.76976 21.7687 3.20776 14.9077 3.20776C8.04662 3.20776 2.48462 8.76976 2.48462 15.6308C2.48462 22.4919 8.04662 28.0539 14.9077 28.0539ZM20.6124 12.476C20.9283 12.0698 20.8551 11.4844 20.449 11.1685C20.0428 10.8526 19.4574 10.9257 19.1415 11.3319L14.1636 17.7321C14.0529 17.8744 13.8447 17.893 13.7106 17.7723L10.5618 14.9384C10.1793 14.5941 9.59016 14.6251 9.24593 15.0076C8.90169 15.3901 8.93269 15.9792 9.31517 16.3234L12.4641 19.1574C13.4021 20.0017 14.8596 19.8725 15.6344 18.8761L20.6124 12.476Z"/>
</svg>
