<svg viewBox="0 0 16 16" xmlns="http://www.w3.org/2000/svg">
    <g clip-path="url(#clip0_536_1727)">
        <path d="M14.5697 0.254815L7.99969 6.82482L1.42969 0.254815C1.27167 0.110214 1.06396 0.0321551 0.849816 0.0368998C0.635674 0.0416446 0.43162 0.128827 0.280162 0.280285C0.128704 0.431744 0.0415211 0.635798 0.0367763 0.849939C0.0320315 1.06408 0.11009 1.2718 0.254691 1.42982L6.82136 7.99981L0.253025 14.5681C0.172779 14.6446 0.108631 14.7364 0.064351 14.838C0.0200714 14.9396 -0.00344626 15.0491 -0.00481903 15.1599C-0.0061918 15.2707 0.014608 15.3807 0.0563572 15.4834C0.0981064 15.5861 0.159963 15.6794 0.23829 15.7579C0.316617 15.8363 0.409835 15.8983 0.512464 15.9402C0.615092 15.9821 0.725061 16.003 0.835905 16.0018C0.946748 16.0006 1.05623 15.9772 1.15792 15.9331C1.2596 15.889 1.35144 15.825 1.42803 15.7448L7.99969 9.17648L14.5697 15.7465C14.7277 15.8911 14.9354 15.9691 15.1496 15.9644C15.3637 15.9597 15.5678 15.8725 15.7192 15.721C15.8707 15.5696 15.9579 15.3655 15.9626 15.1514C15.9674 14.9372 15.8893 14.7295 15.7447 14.5715L9.17469 8.00148L15.7447 1.42982C15.8249 1.35334 15.8891 1.2616 15.9334 1.15997C15.9776 1.05835 16.0012 0.948902 16.0025 0.83806C16.0039 0.727218 15.9831 0.61722 15.9414 0.514532C15.8996 0.411844 15.8378 0.318539 15.7594 0.2401C15.6811 0.161661 15.5879 0.0996729 15.4853 0.0577782C15.3826 0.0158834 15.2727 -0.00507189 15.1618 -0.00385623C15.051 -0.00264058 14.9415 0.0207217 14.8398 0.0648572C14.7381 0.108993 14.6463 0.173011 14.5697 0.253148V0.254815Z"/>
    </g>
    <defs>
        <clipPath id="clip0_536_1727">
            <rect width="16" height="16"/>
        </clipPath>
    </defs>
</svg>
