<svg viewBox="0 0 30 30" xmlns="http://www.w3.org/2000/svg">
<path fill-rule="evenodd" clip-rule="evenodd" d="M16.2112 3.72841C16.2112 3.22136 15.8001 2.8103 15.2931 2.8103C14.7861 2.8103 14.375 3.22136 14.375 3.72841V6.17668C14.375 6.68373 14.7861 7.09479 15.2931 7.09479C15.8001 7.09479 16.2112 6.68373 16.2112 6.17668V3.72841ZM4.92506 6.75162C4.56652 6.39308 3.98521 6.39308 3.62667 6.75162C3.26813 7.11016 3.26813 7.69148 3.62667 8.05002L5.46288 9.88622C5.82141 10.2448 6.40273 10.2448 6.76127 9.88622C7.11981 9.52769 7.11981 8.94637 6.76127 8.58783L4.92506 6.75162ZM26.9595 8.05002C27.3181 7.69148 27.3181 7.11016 26.9595 6.75162C26.601 6.39308 26.0197 6.39308 25.6612 6.75162L23.825 8.58783C23.4664 8.94637 23.4664 9.52769 23.825 9.88622C24.1835 10.2448 24.7648 10.2448 25.1233 9.88622L26.9595 8.05002ZM26.16 15.4449C27.9927 17.1992 27.9927 20.2493 26.16 22.0036C23.6336 24.422 19.7051 27.2932 15.2931 27.2932C10.8811 27.2932 6.95258 24.422 4.4262 22.0036C2.59357 20.2493 2.59357 17.1992 4.4262 15.4449C6.95258 13.0265 10.8811 10.1553 15.2931 10.1553C19.7051 10.1553 23.6336 13.0265 26.16 15.4449ZM18.9655 18.7242C18.9655 20.7525 17.3213 22.3966 15.2931 22.3966C13.2648 22.3966 11.6207 20.7525 11.6207 18.7242C11.6207 16.6961 13.2648 15.0518 15.2931 15.0518C17.3213 15.0518 18.9655 16.6961 18.9655 18.7242Z"  />
</svg>
