<svg viewBox="0 0 50 50" xmlns="http://www.w3.org/2000/svg">
    <circle cx="25" cy="25" r="25" fill="white"/>
    <path d="M23.5771 26.5869V25.1152H17.2715V26.8125H21.6436V27.0918C21.6436 29.6914 19.7529 31.4746 17.0029 31.4746C13.8447 31.4746 11.8896 29.0576 11.8896 25.1582C11.8896 21.3232 13.8125 19.0244 17.0029 19.0244C19.1836 19.0244 20.8057 20.2168 21.4502 22.3115H23.4805C22.9004 19.2285 20.3545 17.2412 17.0029 17.2412C12.6631 17.2412 9.90234 20.3242 9.90234 25.1689C9.90234 30.0996 12.6738 33.2578 17.0029 33.2578C21.1387 33.2578 23.5771 30.7764 23.5771 26.5869ZM32.6006 17.2412C28.207 17.2412 25.457 20.335 25.457 25.2549C25.457 30.1748 28.207 33.2578 32.6006 33.2578C36.9941 33.2578 39.7441 30.1748 39.7441 25.2549C39.7441 20.335 36.9941 17.2412 32.6006 17.2412ZM32.6006 19.0244C35.7695 19.0244 37.7568 21.4307 37.7568 25.2549C37.7568 29.0684 35.7695 31.4746 32.6006 31.4746C29.4316 31.4746 27.4443 29.0684 27.4443 25.2549C27.4443 21.4307 29.4316 19.0244 32.6006 19.0244Z"
          fill="#18435A"/>
</svg>
