<svg viewBox="0 0 29 29" xmlns="http://www.w3.org/2000/svg">
<path d="M8.73121 3.81873C5.64878 3.81873 3.14996 6.31754 3.14996 9.39998V18.8C3.14996 21.8825 5.64878 24.3812 8.73121 24.3812H17.25C20.3325 24.3812 22.8312 21.8825 22.8312 18.8C22.8312 18.3133 22.4366 17.9187 21.95 17.9187C21.4633 17.9187 21.0687 18.3133 21.0687 18.8C21.0687 20.909 19.359 22.6187 17.25 22.6187H11.9203C12.8573 21.6203 13.4312 20.2772 13.4312 18.8V9.39998C13.4312 7.92275 12.8573 6.57956 11.9203 5.58123H17.25C19.359 5.58123 21.0687 7.29093 21.0687 9.39998C21.0687 9.88667 21.4633 10.2812 21.95 10.2812C22.4366 10.2812 22.8312 9.88667 22.8312 9.39998C22.8312 6.31754 20.3325 3.81873 17.25 3.81873H8.73121Z" />
<path d="M19.048 11.1269C19.3921 11.471 19.3921 12.029 19.048 12.3731L18.2023 13.2188H25.7686C26.2553 13.2188 26.6499 13.6133 26.6499 14.1C26.6499 14.5867 26.2553 14.9813 25.7686 14.9813H18.2023L19.048 15.8269C19.3921 16.1711 19.3921 16.729 19.048 17.0731C18.7038 17.4173 18.1458 17.4173 17.8016 17.0731L16.2825 15.554C15.4795 14.751 15.4795 13.4491 16.2825 12.6461L17.8016 11.1269C18.1458 10.7827 18.7038 10.7827 19.048 11.1269Z" />
</svg>
