<svg viewBox="0 0 54 32" xmlns="http://www.w3.org/2000/svg">
<g clip-path="url(#clip0_27_11)">
<path d="M17.2031 24.8672C17.2031 25.362 17.0729 25.8438 16.8125 26.3125C16.5521 26.7552 15.9401 27.276 14.9766 27.875C14.013 28.474 12.9453 29.0469 11.7734 29.5938C10.6016 30.1146 9.46875 30.5703 8.375 30.9609C7.28125 31.3255 6.47396 31.5078 5.95312 31.5078C5.58854 31.5078 5.15885 31.4167 4.66406 31.2344C4.16927 31.0781 3.67448 30.8698 3.17969 30.6094C2.6849 30.349 2.22917 30.0495 1.8125 29.7109C1.42188 29.3724 1.13542 29.0469 0.953125 28.7344C0.848958 28.5521 0.744792 28.1875 0.640625 27.6406C0.5625 27.0938 0.484375 26.4557 0.40625 25.7266C0.354167 24.9974 0.302083 24.2292 0.25 23.4219C0.197917 22.5885 0.145833 21.8073 0.09375 21.0781C0.0677083 20.3229 0.0416667 19.6589 0.015625 19.0859C0.015625 18.513 0.015625 18.0964 0.015625 17.8359C0.015625 16.8724 0.0416667 15.7656 0.09375 14.5156C0.171875 13.2656 0.302083 12.0156 0.484375 10.7656C0.666667 9.48958 0.927083 8.27865 1.26562 7.13281C1.63021 5.96094 2.11198 4.97135 2.71094 4.16406C2.89323 3.92969 3.25781 3.68229 3.80469 3.42188C4.35156 3.16146 4.98958 2.91406 5.71875 2.67969C6.47396 2.44531 7.28125 2.22396 8.14062 2.01562C9 1.80729 9.82031 1.63802 10.6016 1.50781C11.4089 1.35156 12.138 1.23438 12.7891 1.15625C13.4401 1.05208 13.9349 1 14.2734 1C14.6641 1 15.0286 1.09115 15.3672 1.27344C15.7318 1.42969 16.0312 1.65104 16.2656 1.9375C16.526 2.22396 16.7214 2.54948 16.8516 2.91406C17.0078 3.2526 17.0859 3.61719 17.0859 4.00781C17.0859 4.34635 17.0339 4.63281 16.9297 4.86719C16.8516 5.10156 16.7214 5.36198 16.5391 5.64844C16.2786 5.98698 15.7318 6.39062 14.8984 6.85938C14.0651 7.32812 13.1536 7.79688 12.1641 8.26562C11.2005 8.70833 10.263 9.11198 9.35156 9.47656C8.46615 9.84115 7.84115 10.1016 7.47656 10.2578C7.3724 10.8568 7.25521 11.4688 7.125 12.0938C7.02083 12.6927 6.94271 13.3047 6.89062 13.9297C7.69792 13.513 8.60938 13.1224 9.625 12.7578C10.6406 12.3932 11.6042 12.2109 12.5156 12.2109C14.3646 12.2109 15.2891 13.1224 15.2891 14.9453C15.2891 15.388 15.1979 15.7786 15.0156 16.1172C14.8594 16.4557 14.638 16.7552 14.3516 17.0156C14.0911 17.276 13.7786 17.5104 13.4141 17.7188C13.0755 17.901 12.737 18.0833 12.3984 18.2656C11.5651 18.7083 10.6927 19.099 9.78125 19.4375C8.86979 19.75 7.95833 20.0625 7.04688 20.375C6.99479 20.5833 6.94271 20.8177 6.89062 21.0781C6.83854 21.3125 6.8125 21.5469 6.8125 21.7812C6.8125 22.1458 6.83854 22.5104 6.89062 22.875C6.94271 23.2396 6.99479 23.6042 7.04688 23.9688C7.35938 23.8646 7.85417 23.6953 8.53125 23.4609C9.23438 23.2266 9.96354 22.9922 10.7188 22.7578C11.474 22.5234 12.2031 22.3281 12.9062 22.1719C13.6094 21.9896 14.1302 21.8984 14.4688 21.8984C14.8594 21.8984 15.224 21.9896 15.5625 22.1719C15.901 22.3281 16.1875 22.5495 16.4219 22.8359C16.6562 23.0964 16.8385 23.4089 16.9688 23.7734C17.125 24.138 17.2031 24.5026 17.2031 24.8672ZM53.1406 24.8672C53.1406 25.362 53.0104 25.8438 52.75 26.3125C52.4896 26.7552 51.8776 27.276 50.9141 27.875C49.9505 28.474 48.8828 29.0469 47.7109 29.5938C46.5391 30.1146 45.4062 30.5703 44.3125 30.9609C43.2188 31.3255 42.4115 31.5078 41.8906 31.5078C41.526 31.5078 41.0964 31.4167 40.6016 31.2344C40.1068 31.0781 39.612 30.8698 39.1172 30.6094C38.6224 30.349 38.1667 30.0495 37.75 29.7109C37.3594 29.3724 37.0729 29.0469 36.8906 28.7344C36.7865 28.5521 36.6823 28.1875 36.5781 27.6406C36.5 27.0938 36.4219 26.4557 36.3438 25.7266C36.2917 24.9974 36.2396 24.2292 36.1875 23.4219C36.1354 22.5885 36.0833 21.8073 36.0312 21.0781C36.0052 20.3229 35.9792 19.6589 35.9531 19.0859C35.9531 18.513 35.9531 18.0964 35.9531 17.8359C35.9531 16.8724 35.9792 15.7656 36.0312 14.5156C36.1094 13.2656 36.2396 12.0156 36.4219 10.7656C36.6042 9.48958 36.8646 8.27865 37.2031 7.13281C37.5677 5.96094 38.0495 4.97135 38.6484 4.16406C38.8307 3.92969 39.1953 3.68229 39.7422 3.42188C40.2891 3.16146 40.9271 2.91406 41.6562 2.67969C42.4115 2.44531 43.2188 2.22396 44.0781 2.01562C44.9375 1.80729 45.7578 1.63802 46.5391 1.50781C47.3464 1.35156 48.0755 1.23438 48.7266 1.15625C49.3776 1.05208 49.8724 1 50.2109 1C50.6016 1 50.9661 1.09115 51.3047 1.27344C51.6693 1.42969 51.9688 1.65104 52.2031 1.9375C52.4635 2.22396 52.6589 2.54948 52.7891 2.91406C52.9453 3.2526 53.0234 3.61719 53.0234 4.00781C53.0234 4.34635 52.9714 4.63281 52.8672 4.86719C52.7891 5.10156 52.6589 5.36198 52.4766 5.64844C52.2161 5.98698 51.6693 6.39062 50.8359 6.85938C50.0026 7.32812 49.0911 7.79688 48.1016 8.26562C47.138 8.70833 46.2005 9.11198 45.2891 9.47656C44.4036 9.84115 43.7786 10.1016 43.4141 10.2578C43.3099 10.8568 43.1927 11.4688 43.0625 12.0938C42.9583 12.6927 42.8802 13.3047 42.8281 13.9297C43.6354 13.513 44.5469 13.1224 45.5625 12.7578C46.5781 12.3932 47.5417 12.2109 48.4531 12.2109C50.3021 12.2109 51.2266 13.1224 51.2266 14.9453C51.2266 15.388 51.1354 15.7786 50.9531 16.1172C50.7969 16.4557 50.5755 16.7552 50.2891 17.0156C50.0286 17.276 49.7161 17.5104 49.3516 17.7188C49.013 17.901 48.6745 18.0833 48.3359 18.2656C47.5026 18.7083 46.6302 19.099 45.7188 19.4375C44.8073 19.75 43.8958 20.0625 42.9844 20.375C42.9323 20.5833 42.8802 20.8177 42.8281 21.0781C42.776 21.3125 42.75 21.5469 42.75 21.7812C42.75 22.1458 42.776 22.5104 42.8281 22.875C42.8802 23.2396 42.9323 23.6042 42.9844 23.9688C43.2969 23.8646 43.7917 23.6953 44.4688 23.4609C45.1719 23.2266 45.901 22.9922 46.6562 22.7578C47.4115 22.5234 48.1406 22.3281 48.8438 22.1719C49.5469 21.9896 50.0677 21.8984 50.4062 21.8984C50.7969 21.8984 51.1615 21.9896 51.5 22.1719C51.8385 22.3281 52.125 22.5495 52.3594 22.8359C52.5938 23.0964 52.776 23.4089 52.9062 23.7734C53.0625 24.138 53.1406 24.5026 53.1406 24.8672Z" fill="#13293D"/>
<path d="M35.3672 5.14062C35.3672 5.27083 35.237 5.64844 34.9766 6.27344C34.7422 6.89844 34.4167 7.66667 34 8.57812C33.5833 9.48958 33.1016 10.5182 32.5547 11.6641C32.0339 12.7839 31.487 13.9427 30.9141 15.1406C30.3411 16.3125 29.7812 17.4714 29.2344 18.6172C28.6875 19.763 28.1797 20.8047 27.7109 21.7422C27.2682 22.6536 26.8906 23.4349 26.5781 24.0859C26.2656 24.7109 26.0703 25.1016 25.9922 25.2578C26.7995 24.9974 27.6198 24.7891 28.4531 24.6328C29.3125 24.4505 30.1719 24.3594 31.0312 24.3594C31.4479 24.3594 31.8906 24.3984 32.3594 24.4766C32.8281 24.5286 33.2578 24.6589 33.6484 24.8672C34.0651 25.0495 34.4036 25.3099 34.6641 25.6484C34.9505 25.9609 35.0938 26.3906 35.0938 26.9375C35.0938 27.5104 34.8984 28.0312 34.5078 28.5C34.1172 28.9427 33.6094 29.3333 32.9844 29.6719C32.3854 30.0104 31.6953 30.2969 30.9141 30.5312C30.1328 30.7656 29.3516 30.9609 28.5703 31.1172C27.7891 31.2734 27.0469 31.3776 26.3438 31.4297C25.6406 31.5078 25.0547 31.5469 24.5859 31.5469C23.987 31.5469 23.3229 31.5208 22.5938 31.4688C21.8906 31.4167 21.2135 31.2734 20.5625 31.0391C19.9115 30.8047 19.3646 30.4661 18.9219 30.0234C18.5052 29.5547 18.2969 28.9036 18.2969 28.0703C18.2969 27.4974 18.4531 26.7292 18.7656 25.7656C19.1042 24.776 19.4948 23.7734 19.9375 22.7578C20.3802 21.7161 20.8359 20.7266 21.3047 19.7891C21.7995 18.8255 22.1901 18.0703 22.4766 17.5234C23.362 15.8828 24.2474 14.2552 25.1328 12.6406C26.0443 11 26.9297 9.34635 27.7891 7.67969C26.8776 8.20052 25.8359 8.68229 24.6641 9.125C23.4922 9.54167 22.3854 9.75 21.3438 9.75C20.9792 9.75 20.5885 9.69792 20.1719 9.59375C19.7812 9.48958 19.4167 9.34635 19.0781 9.16406C18.7656 8.95573 18.5052 8.69531 18.2969 8.38281C18.0885 8.07031 17.9844 7.70573 17.9844 7.28906C17.9844 6.61198 18.2057 5.98698 18.6484 5.41406C19.0911 4.84115 19.6641 4.32031 20.3672 3.85156C21.0964 3.38281 21.9036 2.96615 22.7891 2.60156C23.7005 2.23698 24.612 1.9375 25.5234 1.70312C26.4349 1.46875 27.2943 1.28646 28.1016 1.15625C28.9349 1.02604 29.638 0.960938 30.2109 0.960938C31.7214 0.960938 32.9583 1.26042 33.9219 1.85938C34.8854 2.45833 35.3672 3.55208 35.3672 5.14062Z" fill="#3E92CC"/>
</g>
<defs>
<clipPath id="clip0_27_11">
<rect width="54" height="32" fill="white"/>
</clipPath>
</defs>
</svg>
