<svg viewBox="0 0 30 30" xmlns="http://www.w3.org/2000/svg">
<path fill-rule="evenodd" clip-rule="evenodd" d="M20.8444 5.71115V7.99467C19.1178 6.92385 17.0811 6.3056 14.9 6.3056C12.7189 6.3056 10.6822 6.92385 8.95555 7.99467V5.71115C8.95555 4.39794 10.0201 3.33337 11.3333 3.33337H18.4667C19.7799 3.33337 20.8444 4.39794 20.8444 5.71115ZM24.4111 17.6C24.4111 22.8529 20.1529 27.1112 14.9 27.1112C9.64715 27.1112 5.38889 22.8529 5.38889 17.6C5.38889 12.3472 9.64715 8.08893 14.9 8.08893C20.1529 8.08893 24.4111 12.3472 24.4111 17.6ZM15.8355 13.4492L16.4969 14.8424C16.6489 15.1625 16.9425 15.3844 17.2823 15.4358L18.7612 15.6592C19.6169 15.7884 19.9586 16.8817 19.3394 17.5092L18.2693 18.5937C18.0234 18.8429 17.9112 19.202 17.9692 19.5539L18.2219 21.0851C18.368 21.9712 17.4735 22.647 16.7082 22.2286L15.3854 21.5055C15.0815 21.3395 14.7185 21.3395 14.4146 21.5055L13.0918 22.2286C12.3265 22.647 11.432 21.9712 11.5781 21.0851L11.8308 19.5539C11.8888 19.202 11.7766 18.8429 11.5307 18.5937L10.4606 17.5092C9.84145 16.8817 10.1831 15.7884 11.0388 15.6592L12.5176 15.4358C12.8575 15.3844 13.1511 15.1625 13.3031 14.8424L13.9645 13.4492C14.3472 12.6429 15.4528 12.6429 15.8355 13.4492Z" />
</svg>
