<svg viewBox="0 0 30 30" xmlns="http://www.w3.org/2000/svg">
<path fill-rule="evenodd" clip-rule="evenodd" d="M24.4285 3.76815C24.9041 3.89562 25.1864 4.38455 25.0589 4.86022L24.6238 6.48427C24.4964 6.95994 24.0074 7.24223 23.5317 7.11477C23.056 6.98732 22.7738 6.49838 22.9012 6.0227L23.3364 4.39866C23.4638 3.92298 23.9528 3.64069 24.4285 3.76815ZM19.4992 5.78472C18.6993 4.39926 16.787 4.18312 15.6981 5.35508L8.03152 13.6061C8.29899 13.8487 8.53386 14.1363 8.7241 14.4659L11.6963 19.6139C11.8866 19.9435 12.0183 20.2907 12.0946 20.6437L23.0735 18.1297C24.633 17.7727 25.4019 16.0085 24.602 14.6231L19.4992 5.78472ZM9.96387 20.3977L6.99165 15.2497C6.49919 14.3968 5.40853 14.1046 4.55557 14.597C3.70261 15.0895 3.41037 16.1801 3.90282 17.0331L6.87504 22.1811C7.36749 23.0341 8.45817 23.3263 9.31113 22.8339C10.1641 22.3414 10.4563 21.2508 9.96387 20.3977ZM16.9322 25.6521L14.6692 21.7327L18.3068 20.8998L20.021 23.8689C20.5135 24.7218 20.2212 25.8125 19.3682 26.305C18.5153 26.7974 17.4246 26.5052 16.9322 25.6521ZM26.371 9.51073C25.8953 9.38327 25.4064 9.66556 25.279 10.1412C25.1515 10.6169 25.4338 11.1058 25.9095 11.2333L27.5335 11.6685C28.0092 11.7959 28.4982 11.5136 28.6256 11.0379C28.7531 10.5623 28.4708 10.0733 27.9951 9.94588L26.371 9.51073Z" />
</svg>
