<svg viewBox="0 0 35 35" xmlns="http://www.w3.org/2000/svg">
    <path fill-rule="evenodd" clip-rule="evenodd"
          d="M14.4167 3.33325H20.0833C21.6482 3.33325 22.9167 4.60178 22.9167 6.16659C22.9167 7.73139 21.6482 8.99992 20.0833 8.99992H14.4167C12.8519 8.99992 11.5833 7.73139 11.5833 6.16659C11.5833 4.60178 12.8519 3.33325 14.4167 3.33325ZM9.46872 6.20913C9.46183 6.31211 9.45833 6.41602 9.45833 6.52074C9.45833 9.06354 11.5197 11.1249 14.0625 11.1249H20.4375C22.9803 11.1249 25.0417 9.06354 25.0417 6.52074C25.0417 6.41602 25.0381 6.31211 25.0313 6.20913C27.8316 6.55308 30 8.93994 30 11.8332V25.9999C30 29.1295 27.4629 31.6666 24.3333 31.6666H10.1667C7.03705 31.6666 4.5 29.1295 4.5 25.9999V11.8332C4.5 8.93994 6.66838 6.55308 9.46872 6.20913ZM10.5208 14.6666C10.5208 14.0798 10.9965 13.6041 11.5833 13.6041H22.9167C23.5035 13.6041 23.9792 14.0798 23.9792 14.6666C23.9792 15.2534 23.5035 15.7291 22.9167 15.7291H11.5833C10.9965 15.7291 10.5208 15.2534 10.5208 14.6666ZM11.5833 19.2708C10.9965 19.2708 10.5208 19.7465 10.5208 20.3333C10.5208 20.92 10.9965 21.3958 11.5833 21.3958H22.9167C23.5035 21.3958 23.9792 20.92 23.9792 20.3333C23.9792 19.7465 23.5035 19.2708 22.9167 19.2708H11.5833ZM10.5208 25.9999C10.5208 25.4131 10.9965 24.9374 11.5833 24.9374H17.25C17.8368 24.9374 18.3125 25.4131 18.3125 25.9999C18.3125 26.5867 17.8368 27.0624 17.25 27.0624H11.5833C10.9965 27.0624 10.5208 26.5867 10.5208 25.9999Z"/>
</svg>
