<svg viewBox="0 0 29 29" xmlns="http://www.w3.org/2000/svg">
<path fill-rule="evenodd" clip-rule="evenodd" d="M21.175 2.34998H7.075C4.47926 2.34998 2.375 4.45424 2.375 7.04998V21.15C2.375 23.3404 3.8735 25.1809 5.9013 25.7023C6.27646 25.7986 6.66974 25.85 7.075 25.85H21.175C21.5803 25.85 21.9735 25.7986 22.3487 25.7023C24.3765 25.1809 25.875 23.3404 25.875 21.15V7.04998C25.875 4.45424 23.7707 2.34998 21.175 2.34998ZM14.125 15.275C17.0175 15.275 19.5045 17.1623 20.601 19.8658C21.1152 21.1335 20.0079 22.325 18.6399 22.325H9.61009C8.24215 22.325 7.13483 21.1335 7.64898 19.8658C8.74554 17.1623 11.2325 15.275 14.125 15.275ZM14.125 5.87498C16.0719 5.87498 17.65 7.45318 17.65 9.39998C17.65 11.3468 16.0719 12.925 14.125 12.925C12.1781 12.925 10.6 11.3468 10.6 9.39998C10.6 7.45318 12.1781 5.87498 14.125 5.87498Z" />
</svg>
