<svg width="54" height="59" viewBox="0 0 54 59" fill="none" xmlns="http://www.w3.org/2000/svg">
<path d="M15.0852 0.546658C15.0331 0.729107 14.7208 2.73603 14.5906 3.66129C14.4995 4.2738 14.3694 4.87326 14.3043 5.00359C14.2392 5.12087 14.0961 5.56396 13.992 5.98098C13.7057 7.12779 13.4324 7.90971 12.7947 9.38232C11.3891 12.6142 9.56713 14.973 7.2506 16.5369C6.704 16.9148 6.11836 17.2797 5.94918 17.3448C5.79301 17.423 5.57176 17.5273 5.46765 17.5924C4.56967 18.1137 2.79973 18.622 1.21199 18.8044C-0.414785 18.9869 -0.401771 19.2084 1.23802 19.3387C1.95381 19.3909 3.5025 19.7557 4.10115 20.0164C7.1595 21.3066 8.82532 22.5576 10.6083 24.9034C11.3891 25.9199 11.5453 26.1675 12.3392 27.7834C13.4974 30.1552 14.1481 32.0709 14.5125 34.2864C14.6036 34.8989 14.7598 35.5635 14.8249 35.759C14.903 35.9675 14.968 36.3975 14.9811 36.7364C14.9941 37.9483 15.1893 37.9223 15.3455 36.6973C15.4235 36.0457 15.5797 35.2638 15.6708 34.938C15.7749 34.6122 15.8921 34.1691 15.9311 33.9606C16.3736 31.706 17.9613 28.0832 19.497 25.7765C20.395 24.4473 22.3731 22.3361 23.3362 21.7105C23.6355 21.502 24.026 21.2544 24.2082 21.1371C24.5205 20.9286 25.7048 20.3422 26.4856 20.0164C27.1494 19.7297 28.8672 19.2996 29.3748 19.2866C29.9865 19.2736 30.5591 19.1172 30.3899 19.0129C30.3118 18.9738 29.8173 18.9087 29.2837 18.8565C28.2946 18.7653 27.0843 18.4265 26.0692 17.9834C25.7568 17.8401 25.4835 17.7358 25.4445 17.7358C25.4055 17.7358 24.8979 17.4621 24.2993 17.1233C23.4663 16.6541 22.8547 16.1329 21.5272 14.8036C20.5512 13.8132 19.6402 12.7706 19.3799 12.3275C19.1326 11.9105 18.7812 11.298 18.586 10.9722C17.1544 8.53524 15.9181 4.95146 15.4105 1.83682C15.2413 0.768204 15.1372 0.351181 15.0852 0.546658Z" fill="#3E92CC"/>
<path d="M44.6404 0.703243C44.6404 0.95085 43.9377 3.89607 43.7555 4.37825C42.8445 6.90645 41.4259 8.79608 39.5128 10.0081C38.8751 10.412 37.4826 10.8942 36.5976 11.0245C36.2202 11.0767 35.9209 11.1549 35.9209 11.22C35.9209 11.2722 36.3113 11.3634 36.7929 11.4155C37.847 11.5328 39.4478 12.2365 40.4499 13.0315C41.7383 14.061 43.352 16.4589 43.6774 17.8272C43.7294 18.0357 43.8205 18.2703 43.8986 18.3485C43.9637 18.4397 44.0938 18.8828 44.198 19.3259C44.4192 20.4206 44.7446 21.6586 44.8096 21.7238C44.8487 21.7629 44.9398 21.3849 45.0309 20.9028C45.2651 19.5865 45.8898 17.7751 46.5535 16.498C47.907 13.8916 50.5359 11.7152 52.6832 11.4155C53.0476 11.3634 53.36 11.2852 53.36 11.2331C53.36 11.1809 53.0346 11.0767 52.6312 10.9855C50.7832 10.6075 48.7139 9.16098 47.4645 7.40167C46.3063 5.75964 45.3692 3.49208 45.0178 1.49819C44.9398 1.04207 44.8226 0.664146 44.7576 0.664146C44.6925 0.664146 44.6404 0.677179 44.6404 0.703243Z" fill="#3E92CC"/>
<path d="M35.4133 23.7566C35.3352 24.4994 35.1791 25.3856 35.0749 25.7505C34.9578 26.1023 34.8147 26.6627 34.7496 26.9885C34.6194 27.6531 34.3201 28.5914 33.9557 29.4906C33.8256 29.8295 33.7084 30.2074 33.7084 30.3507C33.7084 30.4941 33.6173 30.6765 33.5132 30.7678C33.4091 30.859 33.318 31.0023 33.318 31.0805C33.292 31.7061 31.431 34.5731 30.1425 35.9414C27.774 38.4566 25.1971 39.7989 21.9956 40.1899C21.3189 40.2811 20.7593 40.3984 20.7593 40.4766C20.7593 40.5417 21.0846 40.646 21.4751 40.6851C22.9066 40.8415 24.9759 41.4409 26.2253 42.0665C28.3986 43.1351 30.2857 44.8553 31.9125 47.2532C32.3289 47.8657 32.6673 48.4391 32.6673 48.5303C32.6673 48.6215 32.7844 48.83 32.9276 49.0125C33.0707 49.1949 33.1879 49.4295 33.1879 49.5338C33.1879 49.638 33.305 49.8987 33.4482 50.1202C33.5913 50.3287 33.7084 50.6024 33.7084 50.7066C33.7084 50.8239 33.8256 51.1367 33.9557 51.3973C34.0989 51.671 34.242 52.1141 34.2941 52.4008C34.3461 52.6745 34.4633 53.0003 34.5544 53.1436C34.6585 53.2739 34.7496 53.5346 34.7496 53.7301C34.7496 53.9255 34.8667 54.4599 34.9969 54.9029C35.14 55.3591 35.3222 56.3495 35.4133 57.1184C35.6346 59.0471 35.8428 58.9689 36.2332 56.8056C36.3373 56.2061 36.5195 55.4633 36.6236 55.1505C36.7408 54.8378 36.8319 54.4859 36.8319 54.3686C36.8319 54.1601 36.923 53.8995 37.873 51.5016C39.6039 47.1098 42.3369 43.8388 45.7466 42.0665C46.7747 41.5322 47.5686 41.1933 47.7898 41.1933C47.894 41.1933 48.3625 41.076 48.805 40.9327C49.2474 40.7893 49.8591 40.672 50.1584 40.672C50.4448 40.672 50.7831 40.6199 50.8742 40.5548C51.1085 40.4114 50.8482 40.3332 49.6509 40.2159C48.5967 40.0986 47.022 39.6034 45.7596 38.9649C42.3369 37.2316 39.3957 33.6609 37.6908 29.1388C36.923 27.1318 36.8449 26.9103 36.7668 26.4672C36.7147 26.2196 36.5976 25.7765 36.5065 25.4898C36.4024 25.2031 36.2592 24.5255 36.1681 23.9911C35.8558 21.9973 35.6085 21.9321 35.4133 23.7566Z" fill="#3E92CC"/>
</svg>
