<svg viewBox="0 0 25 18" xmlns="http://www.w3.org/2000/svg">
<path fill-rule="evenodd" clip-rule="evenodd" d="M1.59238 5.70919L11.8985 1.08924C12.4612 0.836954 13.0944 0.836954 13.6571 1.08924L23.9632 5.70919C24.4322 5.91943 24.6667 6.38194 24.6667 6.84447V13.9778C24.6667 14.4702 24.2674 14.8695 23.775 14.8695C23.2826 14.8695 22.8833 14.4702 22.8833 13.9778V8.46385L13.6571 12.5996C13.0944 12.852 12.4612 12.852 11.8985 12.5996L1.59238 7.97974C0.654393 7.55923 0.654393 6.12966 1.59238 5.70919ZM5.64444 13.9778V11.7505L11.169 14.227C12.1958 14.6873 13.3597 14.6873 14.3866 14.227L19.9111 11.7505V13.9778C19.9111 15.9477 18.3143 17.5445 16.3444 17.5445H9.21111C7.2413 17.5445 5.64444 15.9477 5.64444 13.9778Z" />
</svg>
