<svg viewBox="0 0 30 30" xmlns="http://www.w3.org/2000/svg">
<path fill-rule="evenodd" clip-rule="evenodd" d="M22.5056 14.1833V7.64441H24.2889V14.1833C24.2889 14.6757 23.8897 15.075 23.3972 15.075C22.9048 15.075 22.5056 14.6757 22.5056 14.1833Z" fill="white"/>
<path d="M19.5333 12.4V8.83337H10.0222V12.4C10.0222 15.0264 12.1514 17.1556 14.7778 17.1556C17.4042 17.1556 19.5333 15.0264 19.5333 12.4Z" fill="white"/>
<path d="M5.30011 7.10129L13.3294 3.53274C14.2516 3.12287 15.3042 3.12287 16.2264 3.53274L24.2557 7.10129C24.7264 7.31049 24.7264 7.97851 24.2557 8.18771L16.2264 11.7563C15.3042 12.1661 14.2516 12.1661 13.3294 11.7563L5.30011 8.18771C4.82942 7.97851 4.82942 7.31049 5.30011 7.10129Z" />
<path d="M17.5117 18.8195L15.6231 20.7292C15.1577 21.1998 14.3978 21.1998 13.9325 20.7292L12.0439 18.8195C11.7521 18.5245 11.3262 18.3987 10.9282 18.5159C7.59316 19.4966 5.26667 21.7124 5.26667 24.289C5.26667 25.6021 6.33123 26.6668 7.64444 26.6668H21.9111C23.2244 26.6668 24.2889 25.6021 24.2889 24.289C24.2889 21.7124 21.9624 19.4966 18.6274 18.5159C18.2294 18.3987 17.8034 18.5245 17.5117 18.8195Z" />
</svg>
