<svg width="16" height="16" viewBox="0 0 16 16" fill="none" xmlns="http://www.w3.org/2000/svg">
<path d="M8.66683 8.11683L10.1668 9.61683C10.2891 9.73905 10.3502 9.89194 10.3502 10.0755C10.3502 10.2591 10.2891 10.4173 10.1668 10.5502C10.0335 10.6835 9.87505 10.7502 9.6915 10.7502C9.50794 10.7502 9.34972 10.6835 9.21683 10.5502L7.5335 8.86683C7.46683 8.80016 7.41683 8.72505 7.3835 8.6415C7.35016 8.55794 7.3335 8.47194 7.3335 8.3835V6.00016C7.3335 5.81127 7.3975 5.65283 7.5255 5.52483C7.6535 5.39683 7.81172 5.33305 8.00016 5.3335C8.18905 5.3335 8.3475 5.3975 8.4755 5.5255C8.6035 5.6535 8.66727 5.81172 8.66683 6.00016V8.11683ZM8.00016 4.00016C7.81127 4.00016 7.65283 3.93616 7.52483 3.80816C7.39683 3.68016 7.33305 3.52194 7.3335 3.3335V2.66683H8.66683V3.3335C8.66683 3.52239 8.60283 3.68083 8.47483 3.80883C8.34683 3.93683 8.18861 4.00061 8.00016 4.00016ZM12.0002 8.00016C12.0002 7.81127 12.0642 7.65283 12.1922 7.52483C12.3202 7.39683 12.4784 7.33305 12.6668 7.3335H13.3335V8.66683H12.6668C12.4779 8.66683 12.3195 8.60283 12.1915 8.47483C12.0635 8.34683 11.9997 8.18861 12.0002 8.00016ZM8.00016 12.0002C8.18905 12.0002 8.3475 12.0642 8.4755 12.1922C8.6035 12.3202 8.66727 12.4784 8.66683 12.6668V13.3335H7.3335V12.6668C7.3335 12.4779 7.3975 12.3195 7.5255 12.1915C7.6535 12.0635 7.81172 11.9997 8.00016 12.0002ZM4.00016 8.00016C4.00016 8.18905 3.93616 8.3475 3.80816 8.4755C3.68016 8.6035 3.52194 8.66727 3.3335 8.66683H2.66683V7.3335H3.3335C3.52239 7.3335 3.68083 7.3975 3.80883 7.5255C3.93683 7.6535 4.00061 7.81172 4.00016 8.00016ZM8.00016 14.6668C7.07794 14.6668 6.21127 14.4917 5.40016 14.1415C4.58905 13.7913 3.8835 13.3164 3.2835 12.7168C2.6835 12.1168 2.20861 11.4113 1.85883 10.6002C1.50905 9.78905 1.33394 8.92239 1.3335 8.00016C1.3335 7.07794 1.50861 6.21127 1.85883 5.40016C2.20905 4.58905 2.68394 3.8835 3.2835 3.2835C3.8835 2.6835 4.58905 2.20861 5.40016 1.85883C6.21127 1.50905 7.07794 1.33394 8.00016 1.3335C8.92239 1.3335 9.78905 1.50861 10.6002 1.85883C11.4113 2.20905 12.1168 2.68394 12.7168 3.2835C13.3168 3.8835 13.7919 4.58905 14.1422 5.40016C14.4924 6.21127 14.6673 7.07794 14.6668 8.00016C14.6668 8.92239 14.4917 9.78905 14.1415 10.6002C13.7913 11.4113 13.3164 12.1168 12.7168 12.7168C12.1168 13.3168 11.4113 13.7919 10.6002 14.1422C9.78905 14.4924 8.92239 14.6673 8.00016 14.6668ZM13.3335 8.00016C13.3335 6.51127 12.8168 5.25016 11.7835 4.21683C10.7502 3.1835 9.48905 2.66683 8.00016 2.66683C6.51127 2.66683 5.25016 3.1835 4.21683 4.21683C3.1835 5.25016 2.66683 6.51127 2.66683 8.00016C2.66683 9.48905 3.1835 10.7502 4.21683 11.7835C5.25016 12.8168 6.51127 13.3335 8.00016 13.3335C9.48905 13.3335 10.7502 12.8168 11.7835 11.7835C12.8168 10.7502 13.3335 9.48905 13.3335 8.00016Z" fill="#13293D"/>
</svg>
