<svg viewBox="0 0 41 40" xmlns="http://www.w3.org/2000/svg">
    <path d="M40.5 19.9998C40.5 8.95437 31.5455 -3.91414e-07 20.5001 -8.74225e-07C9.45504 -1.35702e-06 0.499736 8.95423 0.499736 19.9995C0.499735 31.0448 9.45504 40 20.5001 40C31.5455 40 40.5 31.0454 40.5 19.9998ZM15.1942 29.0244C14.4653 28.2951 14.4649 27.1127 15.1942 26.3831L21.6302 19.9485L15.1614 13.4789C14.4325 12.75 14.4321 11.5672 15.1614 10.8376C15.5266 10.4734 16.0042 10.2912 16.4821 10.2912C16.9599 10.2912 17.4375 10.4734 17.8017 10.8382L25.3079 18.3438C25.4197 18.4157 25.5262 18.4981 25.6236 18.5955C25.9964 18.9683 26.1759 19.459 26.1672 19.9483C26.1755 20.4366 25.9964 20.9281 25.6233 21.3005C25.5261 21.3983 25.4195 21.4803 25.3079 21.5519L17.8355 29.0243C17.1062 29.7534 15.9238 29.7539 15.1942 29.0244Z"/>
</svg>
